<?xml version="1.0" standalone="no"?>
<!DOCTYPE svg PUBLIC "-//W3C//DTD SVG 20010904//EN"
 "http://www.w3.org/TR/2001/REC-SVG-20010904/DTD/svg10.dtd">
<svg version="1.0" xmlns="http://www.w3.org/2000/svg"
 width="1501.000000pt" height="1855.000000pt" viewBox="0 0 1501.000000 1855.000000"
 preserveAspectRatio="xMidYMid meet">
<metadata>
Created by potrace 1.16, written by Peter Selinger 2001-2019
</metadata>
<g transform="translate(0.000000,1855.000000) scale(0.100000,-0.100000)"
fill="#000000" stroke="none">
<path d="M7200 18353 c-655 -44 -1161 -133 -1716 -303 -2559 -782 -4493 -2920
-5008 -5535 -204 -1038 -178 -2118 75 -3146 501 -2039 1888 -3779 3769 -4729
916 -462 1845 -710 2884 -770 1002 -57 2107 129 3085 520 2147 858 3774 2720
4335 4958 205 814 266 1672 180 2517 -139 1377 -675 2683 -1549 3776 -178 221
-282 338 -504 562 -492 498 -988 881 -1574 1214 -963 548 -1997 856 -3127 933
-130 9 -735 11 -850 3z m798 -1354 c690 -50 1375 -222 2002 -504 245 -110 685
-350 685 -373 0 -6 -776 -817 -1724 -1803 -948 -986 -1719 -1795 -1714 -1796
5 -2 1068 545 2363 1215 l2355 1219 83 -101 c130 -157 247 -316 367 -496 125
-187 250 -398 242 -407 -4 -3 -1202 -390 -2663 -859 -1462 -470 -2660 -857
-2663 -859 -2 -3 16 -5 40 -5 66 0 5602 188 5750 195 l126 6 37 -188 c52 -275
107 -705 92 -720 -5 -6 -6015 420 -6103 431 -18 3 -33 2 -33 -2 0 -4 1374
-484 3053 -1066 1678 -582 3053 -1060 3055 -1061 5 -4 -57 -242 -105 -405
-293 -986 -878 -1927 -1630 -2622 -974 -899 -2105 -1414 -3433 -1564 -92 -10
-271 -18 -491 -21 l-347 -5 -6 38 c-3 22 -18 192 -32 380 l-27 341 -1421 626
c-782 344 -1428 627 -1435 629 -13 2 -23 -83 -60 -510 l-46 -513 -120 85
c-471 335 -887 729 -1237 1171 -991 1254 -1431 2844 -1222 4425 344 2617 2411
4704 5024 5074 150 21 236 30 475 49 103 9 632 6 763 -4z"/>
<path d="M5708 14774 c-39 -21 -58 -64 -58 -131 l0 -59 -645 -629 -645 -630 0
-202 0 -203 115 0 115 0 0 -680 0 -680 -115 0 -115 0 0 -340 0 -340 185 0 185
0 -6 -57 c-30 -308 -79 -899 -75 -904 10 -10 2382 -1051 2386 -1047 2 2 -33
454 -78 1006 l-82 1002 157 0 158 0 0 340 0 340 -120 0 -120 0 0 680 0 680
120 0 120 0 -1 203 0 202 -645 629 -644 629 0 59 c0 70 -19 112 -60 133 -37
19 -97 19 -132 -1z m862 -2534 l0 -680 -185 0 -185 0 0 324 c0 365 -5 400 -75
501 -184 268 -598 233 -738 -62 l-32 -68 -3 -347 -3 -348 -184 0 -185 0 0 680
0 680 795 0 795 0 0 -680z"/>
<path d="M4595 9366 c-11 -139 -15 -230 -9 -235 12 -13 2514 -1114 2519 -1110
3 4 -35 492 -39 496 -6 6 -2414 1066 -2432 1070 -20 5 -21 -2 -39 -221z"/>
<path d="M4547 8803 c-11 -19 -40 -454 -31 -462 13 -12 2654 -1174 2658 -1170
4 3 -34 491 -38 496 -1 1 -575 254 -1276 563 -701 309 -1283 566 -1292 571 -9
5 -19 6 -21 2z"/>
<path d="M4476 8008 c-12 -34 -39 -449 -30 -457 14 -12 2794 -1234 2798 -1230
3 3 -34 491 -38 496 0 1 -611 270 -1356 598 -745 329 -1358 599 -1363 602 -4
2 -9 -2 -11 -9z"/>
<path d="M11023 2700 c-647 -82 -1106 -646 -1070 -1316 32 -593 433 -1060 995
-1159 115 -20 353 -20 468 0 584 102 1002 614 1004 1230 2 599 -378 1093 -939
1221 -121 28 -338 39 -458 24z m358 -275 c282 -59 521 -254 650 -529 77 -165
110 -365 90 -547 -27 -255 -127 -468 -293 -625 -178 -168 -351 -241 -598 -251
-204 -8 -355 29 -522 128 -143 84 -304 268 -373 424 -172 390 -94 861 191
1149 221 224 540 317 855 251z"/>
<path d="M3610 2668 c-18 -13 -41 -34 -52 -48 -10 -14 -243 -517 -518 -1119
-447 -977 -500 -1098 -500 -1143 0 -88 56 -136 146 -125 33 3 54 13 75 33 17
18 76 137 157 319 l130 290 659 3 659 2 133 -294 c151 -334 167 -356 258 -356
75 0 133 60 133 136 0 28 -127 315 -501 1133 -276 603 -513 1111 -526 1129
-35 47 -72 62 -151 62 -55 0 -76 -5 -102 -22z m374 -927 c146 -327 265 -596
263 -598 -2 -2 -247 -2 -543 -1 l-540 3 271 602 c148 331 273 598 276 595 4
-4 126 -274 273 -601z"/>
<path d="M252 2660 c-65 -40 -62 24 -62 -1207 0 -1064 1 -1120 18 -1152 48
-90 188 -93 242 -6 19 31 20 49 20 534 l0 501 690 0 689 0 3 -503 c3 -465 4
-505 21 -530 57 -88 187 -88 244 0 17 26 18 87 21 1136 2 741 -1 1121 -8 1147
-6 22 -25 51 -45 69 -30 26 -44 31 -86 31 -65 0 -104 -23 -129 -75 -19 -39
-20 -63 -20 -523 l0 -482 -690 0 -690 0 0 490 c0 542 1 531 -63 570 -42 26
-112 26 -155 0z"/>
<path d="M5393 2663 c-36 -7 -80 -56 -92 -100 -8 -29 -11 -362 -9 -1140 3
-1040 4 -1100 21 -1126 57 -88 187 -88 244 0 17 25 18 62 21 455 l3 428 342
-2 341 -3 347 -450 c190 -247 362 -461 380 -473 28 -19 44 -23 85 -20 88 7
141 67 132 151 -5 42 -31 79 -318 447 -171 221 -310 403 -308 404 1 2 25 9 53
15 222 55 422 200 504 365 55 112 74 210 69 355 -6 158 -35 255 -109 366 -104
155 -262 252 -504 307 -84 20 -124 21 -635 24 -300 1 -555 0 -567 -3z m1144
-281 c222 -57 354 -187 383 -376 39 -252 -110 -461 -385 -542 -52 -15 -117
-18 -507 -21 l-448 -4 0 486 0 487 438 -5 c404 -4 443 -6 519 -25z"/>
<path d="M7765 2656 c-16 -7 -41 -26 -55 -41 l-25 -27 -3 -1119 c-3 -1238 -7
-1158 61 -1200 31 -19 48 -19 637 -16 l605 3 95 26 c251 68 396 169 484 338
49 92 66 170 66 291 0 177 -42 283 -154 394 -73 72 -199 148 -293 176 -24 7
-43 15 -43 18 0 3 26 19 58 36 81 41 201 163 240 245 59 120 77 275 48 411
-44 208 -224 376 -468 438 -135 35 -252 41 -745 41 -376 -1 -484 -4 -508 -14z
m1099 -261 c148 -31 262 -109 313 -214 25 -51 28 -66 28 -166 0 -98 -3 -116
-27 -167 -51 -110 -156 -189 -305 -230 -73 -20 -105 -22 -495 -26 l-418 -4 0
411 0 411 418 0 c327 0 432 -3 486 -15z m131 -1083 c210 -58 317 -156 347
-321 14 -75 -1 -170 -38 -243 -51 -101 -161 -179 -311 -220 -74 -21 -103 -22
-555 -26 l-478 -3 0 421 0 421 478 -3 c454 -4 481 -5 557 -26z"/>
<path d="M12960 2652 c-19 -9 -45 -32 -57 -51 l-23 -34 0 -1114 c0 -1235 -4
-1160 65 -1203 65 -40 161 -16 197 51 17 31 18 66 18 456 l0 423 343 0 343 0
348 -452 c191 -249 359 -462 374 -472 14 -11 47 -21 76 -24 62 -5 111 24 139
81 36 73 34 77 -308 517 l-314 404 82 23 c165 45 331 147 415 255 96 125 135
249 135 428 0 213 -53 351 -188 486 -69 70 -97 89 -186 133 -119 57 -222 87
-359 101 -52 5 -313 10 -580 10 -442 0 -488 -2 -520 -18z m1040 -252 c315 -33
491 -184 507 -436 13 -196 -83 -362 -259 -448 -142 -69 -144 -70 -640 -74
l-448 -3 0 485 0 486 369 0 c203 0 415 -5 471 -10z"/>
</g>
</svg>
